<?xml version="1.0" encoding="utf-8"?>
<svg id="master-artboard" viewBox="0 0 1429.0635986328125 317.7605895996094" version="1.1" xmlns="http://www.w3.org/2000/svg" x="0px" y="0px" style="enable-background:new 0 0 336 235.2;" width="1429.0635986328125px" height="317.7605895996094px"><rect id="ee-background" x="0" y="0" width="1429.0635986328125" height="317.7605895996094" style="fill: white; fill-opacity: 0; pointer-events: none;"/><defs><linearGradient id="paint0_linear_1330_3312" x1="9.26929" y1="7.14407" x2="9.26929" y2="25.8969" gradientUnits="userSpaceOnUse">
<stop stop-color="#703ED5"/>
<stop offset="1" stop-color="#5A3091"/>
</linearGradient></defs><g transform="matrix(1, 0, 0, 1, 12.455904006958008, -315.5498046875)"><g transform="matrix(8.536585365853659, 0, 0, 8.536585365853659, 0.000013596939425042365, 357.6829268292683)"><path fill-rule="evenodd" clip-rule="evenodd" d="M1.43071 7.14407L0.0152588 7.21327C0.0152588 14.2036 4.88204 21.4268 11.299 24.2707C11.964 24.5657 18.4975 27.06 18.4975 25.2342V22.1106C18.4975 20.8303 14.7738 21.9218 10.4003 18.6838C8.82842 17.5196 5.58976 14.1661 5.53645 11.7785C7.15109 11.7785 12.9699 12.0641 14.0444 11.6459C14.5752 11.4389 18.1577 7.69126 18.5233 7.14407H1.43129H1.43071Z" fill="url(#paint0_linear_1330_3312)"/><path fill-rule="evenodd" clip-rule="evenodd" d="M0 5.03341L22.5775 5.05101C23.325 5.05101 27.1162 0.754992 27.6182 0.00487518H1.93511L0 4.53724L0 5.03341Z" fill="#5C3ED5"/><path d="M31.8494 22.5087V1.41522C31.8494 0.505438 32.3238 3.8147e-06 33.2389 3.8147e-06H44.8296C45.7446 3.8147e-06 46.253 0.505438 46.253 1.41522V2.3587C46.253 3.26848 45.7446 3.74022 44.8296 3.74022H36.1874V10.0076H42.8978C43.8128 10.0076 44.3212 10.4794 44.3212 11.3891V12.3326C44.3212 13.2761 43.8128 13.7478 42.8978 13.7478H36.1874V20.1837H45.3718C46.2869 20.1837 46.7952 20.6554 46.7952 21.5652V22.5087C46.7952 23.4522 46.2869 23.9239 45.3718 23.9239H33.2389C32.3238 23.9239 31.8494 23.4522 31.8494 22.5087Z" fill="#2E2E2E" style="fill: rgb(255, 255, 255);"/><path d="M49.8719 22.5087V8.15435C49.8719 7.24457 50.3464 6.73913 51.2614 6.73913H52.5832C53.4982 6.73913 53.9727 7.24457 53.9727 8.15435V9.19892C53.9727 9.56957 53.9049 9.97392 53.9049 9.97392H53.9727C54.8199 8.28913 56.9212 6.33479 59.6325 6.33479C62.242 6.33479 63.9705 7.54783 64.6822 9.87283H64.75C65.665 8.08696 67.9357 6.33479 70.647 6.33479C74.2394 6.33479 76.3067 8.35653 76.3067 12.8717V22.5087C76.3067 23.4522 75.7984 23.9239 74.8833 23.9239H73.426C72.4771 23.9239 72.0026 23.4522 72.0026 22.5087V13.6804C72.0026 11.7261 71.6298 10.2435 69.6302 10.2435C66.7156 10.2435 65.2244 13.2087 65.2244 16.2076V22.5087C65.2244 23.4522 64.75 23.9239 63.8349 23.9239H62.3437C61.4287 23.9239 60.9203 23.4522 60.9203 22.5087V13.6804C60.9203 11.8272 60.6492 10.2435 58.6157 10.2435C55.5655 10.2435 54.1421 13.3435 54.1421 16.2076V22.5087C54.1421 23.4522 53.6677 23.9239 52.7526 23.9239H51.2614C50.3464 23.9239 49.8719 23.4522 49.8719 22.5087Z" fill="#2E2E2E" style="fill: rgb(255, 255, 255);"/><path d="M80.3207 22.5087V1.41522C80.3207 0.505438 80.8291 3.8147e-06 81.7441 3.8147e-06H83.2014C84.1504 3.8147e-06 84.6248 0.505438 84.6248 1.41522V7.64892C84.6248 8.49131 84.5232 9.09783 84.5232 9.09783H84.5909C84.5909 9.09783 86.116 6.33479 89.8779 6.33479C94.4532 6.33479 97.5034 10.0076 97.5034 15.2978C97.5034 20.7902 94.0804 24.3283 89.6068 24.3283C85.7093 24.3283 84.3198 21.4304 84.3198 21.4304H84.252C84.252 21.4304 84.3198 21.7 84.3198 22.1717V22.7109C84.3198 23.4522 83.8453 23.9239 82.8964 23.9239H81.7441C80.8291 23.9239 80.3207 23.4522 80.3207 22.5087ZM84.4893 15.3315C84.4893 18.1283 85.9466 20.7228 88.7595 20.7228C91.1658 20.7228 93.1314 18.8022 93.1314 15.3989C93.1314 12.1641 91.3691 10.0076 88.8612 10.0076C86.6244 10.0076 84.4893 11.6587 84.4893 15.3315Z" fill="#2E2E2E" style="fill: rgb(255, 255, 255);"/><path d="M99.6906 15.3315C99.6906 10.0413 103.283 6.33479 108.468 6.33479C113.383 6.33479 116.128 9.80544 116.128 14.5228C116.128 15.2641 115.484 15.9717 114.637 15.9717H104.096C104.368 19.0717 106.672 20.6891 109.282 20.6891C110.875 20.6891 112.196 20.0826 113.01 19.5772C113.857 19.1728 114.467 19.2739 114.908 20.0489L115.314 20.7228C115.721 21.4978 115.585 22.1717 114.84 22.6098C113.721 23.3174 111.688 24.3283 108.977 24.3283C103.249 24.3283 99.6906 20.2174 99.6906 15.3315ZM104.198 13.3772H111.857C111.79 10.9848 110.332 9.56957 108.367 9.56957C106.164 9.56957 104.605 11.0859 104.198 13.3772Z" fill="#2E2E2E" style="fill: rgb(255, 255, 255);"/><path d="M118.225 15.3315C118.225 9.87283 121.479 6.33479 126.054 6.33479C129.85 6.33479 131.104 8.79457 131.104 8.79457H131.172C131.172 8.79457 131.104 8.35653 131.104 7.81739V1.41522C131.104 0.505438 131.578 3.8147e-06 132.494 3.8147e-06H133.985C134.9 3.8147e-06 135.374 0.505438 135.374 1.41522V22.5087C135.374 23.4522 134.9 23.9239 133.985 23.9239H132.731C131.816 23.9239 131.341 23.4859 131.341 22.6435V21.9696C131.341 21.6326 131.409 21.363 131.409 21.363H131.341C131.341 21.363 129.884 24.3283 125.919 24.3283C121.242 24.3283 118.225 20.6554 118.225 15.3315ZM122.564 15.3315C122.564 18.6 124.326 20.7228 126.868 20.7228C129.104 20.7228 131.206 19.1054 131.206 15.2978C131.206 12.6359 129.816 10.0076 126.902 10.0076C124.563 10.0076 122.564 11.9283 122.564 15.3315Z" fill="#2E2E2E" style="fill: rgb(255, 255, 255);"/><path d="M139.629 18.5663V1.41522C139.629 0.505438 140.103 3.8147e-06 141.018 3.8147e-06H142.51C143.425 3.8147e-06 143.899 0.505438 143.899 1.41522V18.2294C143.899 19.9141 144.611 20.2174 145.255 20.2848C145.865 20.3522 146.305 20.7228 146.305 21.4978V22.6435C146.305 23.5196 145.899 24.0924 144.882 24.0924C142.577 24.0924 139.629 23.4859 139.629 18.5663Z" fill="#2E2E2E" style="fill: rgb(255, 255, 255);"/><path d="M147.707 27.9337C148.08 27.1587 148.656 27.0239 149.232 27.1587C149.537 27.2935 149.944 27.462 150.453 27.462C151.706 27.462 152.689 26.3837 153.198 25.1707L153.842 23.6544L147.267 8.39022C146.826 7.41305 147.267 6.73913 148.351 6.73913H150.181C151.029 6.73913 151.503 7.10979 151.774 7.88479L155.028 16.6457C155.333 17.5554 155.672 18.9707 155.672 18.9707H155.739C155.739 18.9707 156.045 17.6228 156.316 16.713L159.366 7.91848C159.603 7.10979 160.111 6.73913 160.959 6.73913H162.653C163.704 6.73913 164.144 7.37935 163.806 8.35653L156.688 26.4848C155.502 29.6185 152.994 31 150.453 31C149.504 31 148.656 30.7304 148.046 30.4946C147.233 30.1913 147.03 29.45 147.402 28.675L147.707 27.9337Z" fill="#2E2E2E" style="fill: rgb(255, 255, 255);"/></g></g></svg>