<svg width="645" height="146" viewBox="0 0 645 146" fill="none" xmlns="http://www.w3.org/2000/svg">
<path d="M140.385 38.4714H162.141V51.8049C166.38 41.7689 175.28 36.7509 185.17 36.7509C195.624 36.7509 204.242 42.199 208.198 52.9519C212.436 42.0557 221.902 36.7509 232.215 36.7509C246.484 36.7509 258.21 46.9303 258.21 67.1457V118.759H235.888V71.4468C235.888 62.271 231.933 55.9627 223.315 55.9627C214.697 55.9627 210.458 62.4144 210.458 71.4468V118.759H188.137V71.4468C188.137 62.271 184.181 55.9627 175.563 55.9627C166.945 55.9627 162.707 62.4144 162.707 71.4468V118.759H140.385V38.4714Z" fill="#725AC1"/>
<path d="M289.616 78.6154C289.616 90.0851 296.962 99.691 308.971 99.691C320.98 99.691 328.326 90.0851 328.326 78.6154C328.326 67.1457 320.98 57.5398 308.971 57.5398C296.962 57.5398 289.616 67.1457 289.616 78.6154ZM268.142 118.759V11.2308H290.464V51.5182C295.691 41.7689 304.309 36.7509 315.47 36.7509C335.39 36.7509 350.93 52.6651 350.93 78.6154C350.93 104.566 335.39 120.48 315.47 120.48C304.309 120.48 295.267 115.462 289.616 105.856V118.759H268.142Z" fill="#725AC1"/>
<path d="M399.618 120.48C373.341 120.48 356.529 103.419 356.529 78.6154C356.529 54.6723 372.069 36.7509 395.804 36.7509C419.538 36.7509 432.819 54.6723 432.819 75.748C432.819 79.7624 432.395 83.49 431.971 87.0743H380.122C381.393 93.6694 387.751 100.121 401.455 100.121C410.214 100.121 418.267 97.2537 426.461 92.9525V114.172C417.419 118.616 407.954 120.48 399.618 120.48ZM379.839 71.1601H410.214C409.79 63.2746 405.976 56.1061 395.38 56.1061C384.643 56.1061 380.263 63.2746 379.839 71.1601Z" fill="#725AC1"/>
<path d="M499.795 78.6154C499.795 67.1457 492.449 57.5398 480.44 57.5398C468.432 57.5398 461.085 67.1457 461.085 78.6154C461.085 90.0851 468.432 99.691 480.44 99.691C492.449 99.691 499.795 90.0851 499.795 78.6154ZM438.481 78.6154C438.481 52.6651 454.021 36.7509 473.941 36.7509C485.102 36.7509 493.72 41.7689 498.948 51.5182V11.2308H521.269V118.759H499.795V105.856C494.144 115.462 485.102 120.48 473.941 120.48C454.021 120.48 438.481 104.566 438.481 78.6154Z" fill="#725AC1"/>
<path d="M531.812 118.759V11.2308H554.134V118.759H531.812Z" fill="#725AC1"/>
<path d="M562 38.4714H585.735L599.297 87.6478L602.971 102.702H603.253L607.068 87.6478L621.195 38.4714H644.647L613.566 146H590.397L599.015 115.892H585.028L562 38.4714Z" fill="#725AC1"/>
<path fill-rule="evenodd" clip-rule="evenodd" d="M70.099 0.142387C55.3611 -0.820445 40.7176 3.12043 28.533 11.3372C16.3472 19.5547 7.32848 31.5725 2.94727 45.4575C-1.43421 59.3433 -0.917809 74.2746 4.41177 87.8355C9.74098 101.395 19.5672 112.783 32.29 120.17C45.0117 127.556 59.8924 130.514 74.5303 128.573C89.1686 126.632 102.723 119.903 112.999 109.461L118.881 103.484L83.5731 70.0137L131.962 61.9889L130.553 53.8083C128.085 39.473 120.767 26.3836 109.794 16.6497C98.8225 6.91668 84.8369 1.10523 70.099 0.142387ZM37.9748 25.0151C47.0571 18.8904 57.9857 15.9453 68.994 16.6645C80.0022 17.3837 90.4332 21.724 98.6042 28.9724C104.657 34.3414 109.207 41.0729 111.903 48.5257L47.9005 59.1401L94.5783 103.39C88.0488 108.052 80.4028 111.088 72.3028 112.162C61.3699 113.612 50.2618 111.401 40.7752 105.893C31.2896 100.386 23.9848 91.9083 20.0278 81.8399C16.0712 71.7726 15.6885 60.693 18.9403 50.3873C22.1924 40.0808 28.8936 31.139 37.9748 25.0151Z" fill="#725AC1"/>
</svg>
