<svg width="132" height="130" viewBox="0 0 132 130" fill="none" xmlns="http://www.w3.org/2000/svg">
<path fill-rule="evenodd" clip-rule="evenodd" d="M70.099 0.142387C55.3611 -0.820445 40.7176 3.12043 28.533 11.3372C16.3472 19.5547 7.32848 31.5725 2.94727 45.4575C-1.43421 59.3433 -0.917809 74.2746 4.41177 87.8355C9.74098 101.395 19.5672 112.783 32.29 120.17C45.0117 127.556 59.8924 130.514 74.5303 128.573C89.1686 126.632 102.723 119.903 112.999 109.461L118.881 103.484L83.5731 70.0137L131.962 61.9889L130.553 53.8083C128.085 39.473 120.767 26.3836 109.794 16.6497C98.8225 6.91668 84.8369 1.10523 70.099 0.142387ZM37.9748 25.0151C47.0571 18.8904 57.9857 15.9453 68.994 16.6645C80.0022 17.3837 90.4332 21.724 98.6042 28.9724C104.657 34.3414 109.207 41.0729 111.903 48.5257L47.9005 59.1401L94.5783 103.39C88.0488 108.052 80.4028 111.088 72.3028 112.162C61.3699 113.612 50.2618 111.401 40.7752 105.893C31.2896 100.386 23.9848 91.9083 20.0278 81.8399C16.0712 71.7726 15.6885 60.693 18.9403 50.3873C22.1924 40.0808 28.8936 31.139 37.9748 25.0151Z" fill="#725AC1"/>
</svg>
