<svg width="35" height="35" viewBox="0 0 35 35" fill="none" xmlns="http://www.w3.org/2000/svg">
<path d="M17.3873 35C26.99 35 34.7746 27.165 34.7746 17.5C34.7746 7.83502 26.99 0 17.3873 0C7.78456 0 0 7.83502 0 17.5C0 27.165 7.78456 35 17.3873 35Z" fill="black"/>
<path d="M18.911 5.43164L23.8487 8.30016L15.9238 12.9056V7.16766L18.911 5.43164Z" fill="white"/>
<path d="M10.9258 19.3713L15.8444 22.2288L15.9239 22.2757L23.5444 26.7036L18.614 29.5685L15.9239 28.0054L10.9258 25.101V19.3713Z" fill="white"/>
<path d="M10.9258 10.0942L15.8444 12.9517L15.9239 12.9977L23.8269 17.5903L18.8964 20.4551L15.9239 22.1829V18.7283L10.9258 15.8239V10.0942Z" fill="white"/>
</svg>
