<?xml version="1.0" encoding="UTF-8"?>
<svg id="Layer_1" data-name="Layer 1" xmlns="http://www.w3.org/2000/svg" viewBox="0 0 1280 443.26">
  <g>
    <polygon points="147.59 0 238.85 52.69 92.38 137.26 92.38 31.88 147.59 0"/>
    <polygon points="0 255.99 90.9 308.48 92.38 309.33 233.23 390.65 142.1 443.26 92.38 414.56 0 361.22 0 255.99"/>
    <polygon points="0 85.62 90.9 138.11 92.38 138.96 238.46 223.29 147.32 275.91 92.38 307.63 92.38 244.19 0 190.85 0 85.62"/>
  </g>
  <g>
    <path d="m724.71,130.48V25.51h61.95v300.29h-59.98v-23.28c-16.84,19.21-38.28,28.81-64.32,28.81-30.26,0-55.64-10.78-76.16-32.36-20.26-21.83-30.38-48.93-30.38-81.29s10.12-59.05,30.38-80.89c20.52-21.83,45.9-32.75,76.16-32.75,24.72,0,45.51,8.82,62.35,26.44Zm3.16,86.81c0-16.04-5.27-29.46-15.78-40.25-10.26-11.05-23.42-16.57-39.46-16.57s-29.34,5.52-39.85,16.57c-10.26,11.05-15.39,24.47-15.39,40.25s5.13,29.99,15.39,41.04c10.52,11.05,23.81,16.57,39.85,16.57s29.2-5.52,39.46-16.57c10.52-10.78,15.78-24.47,15.78-41.04Z"/>
    <path d="m979.13,130.87v-21.31h56.43v194.93c0,34.98-11.44,62.48-34.33,82.47-22.36,20.52-51.3,30.78-86.81,30.78-37.88,0-71.56-10.79-101.02-32.36l23.68-45.77c24.72,16.83,49.72,25.26,74.97,25.26,19.99,0,35.71-5.2,47.15-15.59,11.44-10.4,17.17-23.74,17.17-40.05v-8.29c-16.05,16.84-37.36,25.25-63.93,25.25-31.83,0-57.75-10.39-77.74-31.17-20-20.78-29.99-47.22-29.99-79.32s10.52-59.45,31.57-80.5,46.96-31.17,78.53-31.17c25.78,0,47.22,8.95,64.32,26.83Zm-1.97,85.23c0-16.04-5.2-29.26-15.59-39.66-10.4-10.39-23.48-15.59-39.26-15.59s-28.94,5.26-39.46,15.78c-10.53,10.26-15.78,23.42-15.78,39.46s5.26,29.73,15.78,40.25c10.78,10.79,23.94,16.18,39.46,16.18s28.81-5.26,39.07-15.78c10.52-10.52,15.78-24.07,15.78-40.64Z"/>
    <path d="m1277.99,238.54c1.32-6.9,2.01-14.01,2.01-21.3,0-7.82-.8-15.47-2.31-22.87-10.56-51.54-56.2-90.32-110.88-90.32s-100.3,38.79-110.88,90.32c-1.51,7.4-2.31,15.04-2.31,22.87,0,7.29.69,14.4,2.01,21.3,9.96,52.34,55.96,91.89,111.18,91.89,31.85,0,60.61-13.14,81.18-34.3l-33.98-38.82c-11.51,13.53-28.65,22.1-47.8,22.1-26.96,0-49.95-17-58.86-40.87h170.65Zm-170.51-44.17c8.98-23.69,31.89-40.53,58.72-40.53s49.72,16.84,58.7,40.53h-117.42Z"/>
    <path d="m535.75,238.54c1.32-6.9,2.01-14.01,2.01-21.3,0-7.82-.8-15.47-2.31-22.87-10.56-51.54-56.2-90.32-110.88-90.32s-100.3,38.79-110.88,90.32c-1.51,7.4-2.31,15.04-2.31,22.87,0,7.29.69,14.4,2.01,21.3,9.96,52.34,55.96,91.89,111.18,91.89,31.85,0,60.61-13.14,81.18-34.3l-33.98-38.82c-11.51,13.53-28.65,22.1-47.8,22.1-26.96,0-49.95-17-58.86-40.87h170.65Zm-170.51-44.17c8.98-23.69,31.89-40.53,58.72-40.53s49.72,16.84,58.7,40.53h-117.42Z"/>
  </g>
</svg>